<svg xmlns="http://www.w3.org/2000/svg" viewBox="0 0 160 120" fill="none">
  <rect x="12" y="28" width="136" height="64" rx="6" fill="#fef3c7" stroke="#d97706" stroke-width="2"/>
  <rect x="76" y="28" width="8" height="64" fill="#fde68a" opacity=".9"/>
  <g fill="#92400e">
    <circle cx="28" cy="42" r="3"/><circle cx="42" cy="42" r="3"/><circle cx="56" cy="42" r="3"/>
    <circle cx="28" cy="58" r="3"/><circle cx="42" cy="58" r="3"/><circle cx="56" cy="58" r="3"/>
    <circle cx="28" cy="74" r="3"/><circle cx="42" cy="74" r="3"/><circle cx="56" cy="74" r="3"/>
    <circle cx="104" cy="42" r="3"/><circle cx="118" cy="42" r="3"/><circle cx="132" cy="42" r="3"/>
    <circle cx="104" cy="58" r="3"/><circle cx="118" cy="58" r="3"/><circle cx="132" cy="58" r="3"/>
    <circle cx="104" cy="74" r="3"/><circle cx="118" cy="74" r="3"/><circle cx="132" cy="74" r="3"/>
  </g>
</svg>
